<?xml version="1.0" encoding="UTF-8" standalone="no"?>
<!-- Created with Inkscape (http://www.inkscape.org/) -->

<svg
   xmlns:dc="http://purl.org/dc/elements/1.1/"
   xmlns:cc="http://creativecommons.org/ns#"
   xmlns:rdf="http://www.w3.org/1999/02/22-rdf-syntax-ns#"
   xmlns:svg="http://www.w3.org/2000/svg"
   xmlns="http://www.w3.org/2000/svg"
   xmlns:sodipodi="http://sodipodi.sourceforge.net/DTD/sodipodi-0.dtd"
   xmlns:inkscape="http://www.inkscape.org/namespaces/inkscape"
   width="1052.3622"
   height="744.09448"
   id="svg2"
   version="1.1"
   inkscape:version="0.48.4 r9939"
   sodipodi:docname="1_title_landscape.svg">
  <defs
     id="defs4" />
  <sodipodi:namedview
     id="base"
     pagecolor="#ffffff"
     bordercolor="#666666"
     borderopacity="1.0"
     inkscape:pageopacity="0.0"
     inkscape:pageshadow="2"
     inkscape:zoom="1.0766255"
     inkscape:cx="452.07828"
     inkscape:cy="401.1897"
     inkscape:document-units="mm"
     inkscape:current-layer="layer3"
     showgrid="false"
     inkscape:window-width="1680"
     inkscape:window-height="1000"
     inkscape:window-x="0"
     inkscape:window-y="0"
     inkscape:window-maximized="1"
     showguides="false"
     inkscape:guide-bbox="true"
     units="mm"
     inkscape:snap-grids="false"
     inkscape:snap-bbox="true"
     inkscape:snap-bbox-midpoints="true"
     inkscape:snap-global="true"
     inkscape:snap-to-guides="true">
    <inkscape:grid
       units="mm"
       empspacing="10"
       visible="true"
       enabled="true"
       snapvisiblegridlinesonly="true"
       type="xygrid"
       id="grid3073" />
    <sodipodi:guide
       orientation="0,1"
       position="432.5074,577.57161"
       id="guide3079" />
    <sodipodi:guide
       orientation="0,1"
       position="-35.433071,175.3937"
       id="guide3081" />
    <sodipodi:guide
       orientation="0,1"
       position="-35.433071,87.69685"
       id="guide3089" />
  </sodipodi:namedview>
  <metadata
     id="metadata7">
    <rdf:RDF>
      <cc:Work
         rdf:about="">
        <dc:format>image/svg+xml</dc:format>
        <dc:type
           rdf:resource="http://purl.org/dc/dcmitype/StillImage" />
        <dc:title />
      </cc:Work>
    </rdf:RDF>
  </metadata>
  <g
     inkscape:groupmode="layer"
     id="layer3"
     inkscape:label="Deckblatt"
     transform="translate(0,-308.2677)"
     style="display:inline">
    <g
       id="g3055"
       transform="translate(247.91528,309.51804)">
      <text
         sodipodi:linespacing="125%"
         id="text3047"
         y="434.14883"
         x="279.31418"
         style="font-size:16px;font-style:normal;font-variant:normal;font-weight:normal;font-stretch:normal;text-align:center;line-height:125%;letter-spacing:2.13999987px;word-spacing:0px;text-anchor:middle;fill:#000000;fill-opacity:1;stroke:none;font-family:EB Garamond 12 All SC;-inkscape-font-specification:EB Garamond 12 All SC"
         xml:space="preserve"><tspan
           y="434.14883"
           x="280.38419"
           id="tspan3049"
           sodipodi:role="line">baldassare</tspan></text>
      <text
         sodipodi:linespacing="125%"
         id="text3051"
         y="452.66589"
         x="277.94019"
         style="font-size:12px;font-style:normal;font-variant:normal;font-weight:normal;font-stretch:normal;text-align:center;line-height:125%;letter-spacing:5.19000053px;word-spacing:0px;text-anchor:middle;fill:#d40000;fill-opacity:1;stroke:none;font-family:EB Garamond;-inkscape-font-specification:EB Garamond"
         xml:space="preserve"><tspan
           style="font-size:20px;letter-spacing:5.19000053px;fill:#d40000"
           y="452.66589"
           x="280.53519"
           id="tspan3053"
           sodipodi:role="line">GALUPPI</tspan></text>
    </g>
    <text
       xml:space="preserve"
       style="font-size:12px;font-style:normal;font-variant:normal;font-weight:normal;font-stretch:normal;text-align:center;line-height:110.00000238%;letter-spacing:0px;word-spacing:0px;text-anchor:middle;fill:#000000;fill-opacity:1;stroke:none;font-family:EB Garamond;-inkscape-font-specification:EB Garamond"
       x="526.22748"
       y="559.57654"
       id="text3061"
       sodipodi:linespacing="110%"><tspan
         sodipodi:role="line"
         x="526.22748"
         y="559.57654"
         style="font-size:14px;font-style:normal;line-height:110.00000238%;-inkscape-font-specification:EB Garamond"
         id="tspan3039">Gloria</tspan><tspan
         sodipodi:role="line"
         x="526.22748"
         y="574.97656"
         style="font-size:14px;font-style:normal;line-height:110.00000238%;-inkscape-font-specification:EB Garamond"
         id="tspan3035">à 4.° Con:</tspan><tspan
         sodipodi:role="line"
         x="526.22748"
         y="590.37653"
         style="font-size:14px;font-style:normal;line-height:110.00000238%;-inkscape-font-specification:EB Garamond"
         id="tspan3038" /><tspan
         sodipodi:role="line"
         x="526.22748"
         y="605.77655"
         style="font-size:14px;font-style:normal;line-height:110.00000238%;-inkscape-font-specification:EB Garamond"
         id="tspan3040">BurG I/26</tspan></text>
    <text
       xml:space="preserve"
       style="font-size:14px;font-style:normal;font-variant:normal;font-weight:normal;font-stretch:normal;text-align:center;line-height:125%;letter-spacing:1.84000015px;word-spacing:0px;text-anchor:middle;fill:#000000;fill-opacity:1;stroke:none;font-family:EB Garamond 12 All SC;-inkscape-font-specification:EB Garamond 12 All SC"
       x="526.20123"
       y="967.76636"
       id="text3099"
       sodipodi:linespacing="125%"><tspan
         sodipodi:role="line"
         x="527.12122"
         y="967.76636"
         id="tspan3023">full score</tspan></text>
    <text
       sodipodi:linespacing="110%"
       id="text3021"
       y="876.96851"
       x="526.0517"
       style="font-size:12px;font-style:normal;font-variant:normal;font-weight:normal;font-stretch:normal;text-align:center;line-height:110.00000238%;letter-spacing:0px;word-spacing:0px;text-anchor:middle;fill:#000000;fill-opacity:1;stroke:none;font-family:EB Garamond;-inkscape-font-specification:EB Garamond"
       xml:space="preserve"><tspan
         style="font-size:14px;font-style:normal;line-height:110.00000238%;-inkscape-font-specification:EB Garamond"
         y="876.96851"
         x="526.0517"
         sodipodi:role="line"
         id="tspan3845">S, A (Solo), S, A, T, B (coro), 2 fl, 2 ob, 2 cor, 2 vl, vla, b, org</tspan></text>
    <g
       style="font-size:72px;font-style:normal;font-variant:normal;font-weight:normal;font-stretch:normal;text-align:center;line-height:125%;letter-spacing:0px;word-spacing:0px;text-anchor:middle;fill:none;stroke:#808080;stroke-width:0.62362206;stroke-miterlimit:4;stroke-dasharray:none;font-family:Linux Libertine O;-inkscape-font-specification:Linux Libertine O"
       id="text3037"
       transform="translate(320.34266,-96.489718)">
      <path
         d="m 102.95549,548.81629 c -14.543985,0 -26.855999,10.08001 -26.855999,24.48 0,11.44798 10.872011,21.024 22.32,21.024 7.415989,0 21.023999,-2.30401 21.023999,-3.96 0,-0.648 -1.944,-1.58401 -1.944,-3.24 l 0,-7.56 c 0,-1.656 2.232,-2.52001 3.24,-2.952 0.936,-0.36 1.728,-1.22401 1.728,-1.656 0,-0.864 -0.504,-1.44 -1.44,-1.44 -1.8,0 -3.888,0.288 -6.264,0.288 -2.448,0 -7.848,-0.288 -9.72,-0.288 -0.72,0 -1.512,0.36 -1.512,1.152 0,1.07999 1.224,1.296 3.384,2.088 1.584,0.57599 3.888,1.44 3.888,2.952 l 0,8.712 c 0,1.22399 -5.472,2.736 -9.288,2.736 -10.367989,0 -17.351999,-9.93602 -17.351999,-20.376 0,-9.792 6.768009,-18.72 16.343999,-18.72 5.616,0 11.016,1.8 13.68,6.84 1.008,1.94399 1.8,2.88 2.376,2.88 0.648,0 1.152,-0.43201 1.152,-1.08 0,-2.016 -0.576,-5.97601 -0.864,-7.056 -0.216,-0.792 -0.432,-2.16001 -1.224,-2.376 -4.82399,-1.296 -5.97601,-2.448 -12.672,-2.448"
         style="fill:none;stroke:#808080;stroke-width:0.62362206;stroke-miterlimit:4;stroke-dasharray:none;font-family:EB Garamond;-inkscape-font-specification:EB Garamond"
         id="path3044"
         inkscape:connector-curvature="0" />
      <path
         d="m 139.59899,586.47229 0,-28.584 c 0,-4.104 1.944,-4.17601 6.048,-5.328 0.648,-0.216 1.08,-0.57601 1.08,-1.224 0,-0.864 -1.44,-1.296 -2.52,-1.296 -2.448,0 -5.4,0.36 -7.92,0.36 -2.592,0 -5.184,-0.36 -7.992,-0.36 -1.584,0 -2.592,0.432 -2.592,1.296 0,0.64799 0.504,1.008 1.152,1.224 4.104,1.15199 5.904,1.224 5.904,5.328 l 0,26.28 c 0,2.66399 -0.936,4.104 -3.384,5.184 -1.584,0.71999 -3.96,1.08 -3.96,2.16 0,0.71999 1.584,1.152 2.376,1.224 0.504,0 4.752,-0.36 8.136,-0.36 7.63199,0 21.24,0.36 23.904,0.36 1.224,0 1.44,-0.28801 2.016,-1.368 0.576,-0.936 2.376,-6.76801 2.376,-8.712 0,-2.016 -0.576,-3.384 -1.296,-3.384 -0.648,0 -1.584,0.576 -1.944,1.368 -2.088,4.39199 -3.024,8.712 -8.568,8.712 l -9.648,0 c -2.232,0 -3.168,-0.79201 -3.168,-2.88"
         style="fill:none;stroke:#808080;stroke-width:0.62362206;stroke-miterlimit:4;stroke-dasharray:none;font-family:EB Garamond;-inkscape-font-specification:EB Garamond"
         id="path3046"
         inkscape:connector-curvature="0" />
      <path
         d="m 178.24837,568.83229 c 0,-7.92 5.76,-15.984 13.68,-15.984 9.35999,0 14.328,10.224 14.328,19.584 0,8.56799 -3.74401,17.712 -12.312,17.712 -10.00799,0 -15.696,-11.30401 -15.696,-21.312 m 16.416,-19.296 c -14.25599,0 -24.48,8.20801 -24.48,21.816 0,13.10398 9.86401,22.104 22.752,22.104 12.31198,0 21.384,-10.87202 21.384,-23.184 0,-10.51199 -9.86401,-20.736 -19.656,-20.736"
         style="fill:none;stroke:#808080;stroke-width:0.62362206;stroke-miterlimit:4;stroke-dasharray:none;font-family:EB Garamond;-inkscape-font-specification:EB Garamond"
         id="path3048"
         inkscape:connector-curvature="0" />
      <path
         d="m 248.08049,574.88029 c -0.936,-1.368 -1.8,-2.95201 -1.8,-3.6 0,-0.648 0.288,-0.57601 1.224,-1.296 3.384,-2.448 5.688,-5.47201 5.688,-10.08 0,-7.272 -8.06401,-10.296 -15.336,-10.296 -6.40799,0 -9.36001,0.216 -15.696,0.72 -1.512,0.072 -2.52,0.432 -2.52,1.296 0,0.64799 0.504,1.008 1.152,1.224 4.104,1.15199 5.904,1.224 5.904,5.328 l 0,25.992 c 0,2.66399 -0.936,4.104 -3.384,5.184 -1.584,0.71999 -3.96,1.08 -3.96,2.16 0,0.71999 1.584,1.152 2.376,1.224 0.504,0 4.824,-0.432 7.92,-0.432 3.456,0 8.208,0.432 8.712,0.432 0.792,-0.072 2.304,-0.50401 2.304,-1.224 0,-1.08 -2.376,-1.44001 -3.96,-2.16 -2.448,-1.08 -3.384,-2.52001 -3.384,-5.184 l 0,-8.64 c 0,-1.44 0.504,-1.944 2.016,-1.944 3.024,0 5.112,0.936 5.976,2.376 3.744,6.26399 7.12801,10.512 11.376,14.976 2.016,2.15999 5.616,3.384 9.144,3.384 2.52,0 5.04,-0.86401 5.04,-2.16 0,-0.576 -0.432,-1.152 -1.224,-1.224 -1.584,-0.144 -3.24,-0.50401 -4.104,-1.152 -5.39999,-3.888 -9.936,-9.64801 -13.464,-14.904 m -11.808,-3.888 c -2.088,0 -2.952,-0.57601 -2.952,-1.872 l 0,-13.896 c 0,-1.368 1.584,-2.448 3.6,-2.448 4.824,0 9.072,3.384 9.072,8.208 0,3.74399 -1.584,6.192 -4.392,8.568 -0.648,0.71999 -3.168,1.44 -5.328,1.44"
         style="fill:none;stroke:#808080;stroke-width:0.62362206;stroke-miterlimit:4;stroke-dasharray:none;font-family:EB Garamond;-inkscape-font-specification:EB Garamond"
         id="path3050"
         inkscape:connector-curvature="0" />
      <path
         d="m 284.90062,550.04029 c -2.448,0 -5.40001,0.36 -7.92,0.36 -2.592,0 -5.18401,-0.36 -7.992,-0.36 -1.08,0 -2.52,0.432 -2.52,1.296 0,0.64799 0.504,1.008 1.152,1.224 4.10399,1.15199 5.904,1.224 5.904,5.328 l 0,26.28 c 0,2.66399 -0.93601,4.104 -3.384,5.184 -1.584,0.71999 -3.96,1.08 -3.96,2.16 0,0.71999 1.584,1.152 2.376,1.224 0.504,0 4.752,-0.432 8.136,-0.432 3.45599,0 8.208,0.432 8.712,0.432 0.792,-0.072 2.304,-0.50401 2.304,-1.224 0,-1.08 -2.37601,-1.44001 -3.96,-2.16 -2.448,-1.08 -3.384,-2.52001 -3.384,-5.184 l 0,-26.28 c 0,-4.104 1.872,-4.17601 5.976,-5.328 0.648,-0.216 1.08,-0.57601 1.08,-1.224 0,-0.864 -1.44001,-1.296 -2.52,-1.296"
         style="fill:none;stroke:#808080;stroke-width:0.62362206;stroke-miterlimit:4;stroke-dasharray:none;font-family:EB Garamond;-inkscape-font-specification:EB Garamond"
         id="path3052"
         inkscape:connector-curvature="0" />
      <path
         d="m 306.34537,573.00829 5.04,-14.328 c 0.288,-0.72 0.576,-0.936 0.792,-0.216 l 4.392,13.464 c 0.72,2.30399 0.64799,2.592 -0.792,2.592 l -8.784,0 c -1.296,0 -1.08,-0.36001 -0.648,-1.512 m 20.52,19.296 c 2.37599,0 4.968,0.432 6.624,0.432 1.36799,0 2.088,-0.36001 2.088,-1.152 0,-0.72 -0.64801,-1.44001 -2.88,-2.232 -3.528,-1.296 -4.32001,-3.24001 -6.408,-9.072 l -9.504,-26.856 c -1.008,-2.808 -1.44001,-5.184 -2.664,-5.184 -0.432,0 -1.72801,2.016 -3.096,2.16 -0.792,0.072 -0.79201,1.008 -2.016,4.104 l -11.016,30.456 c -1.08,2.95199 -1.00801,3.312 -3.384,4.392 -1.584,0.71999 -3.96,1.08 -3.96,2.16 0,0.79199 1.008,1.224 2.376,1.224 1.07999,0 2.736,-0.432 4.536,-0.432 1.36799,0 4.536,0.432 5.904,0.432 1.79999,0 2.52,-0.43201 2.52,-1.224 0,-0.72 -0.79201,-1.51201 -2.664,-2.016 -2.088,-0.576 -2.016,-1.72801 -1.584,-3.024 l 2.736,-7.848 c 0.288,-0.72 0.792,-0.792 1.152,-0.792 l 12.024,0 c 0.576,0 0.936,0.216 1.152,0.864 l 2.088,6.84 c 0.36,1.22399 0.50399,2.592 -2.088,3.816 -1.584,0.71999 -3.888,1.08 -3.888,2.16 0,0.79199 1.368,1.224 2.304,1.224 2.15999,0 4.896,-0.432 9.648,-0.432"
         style="fill:none;stroke:#808080;stroke-width:0.62362206;stroke-miterlimit:4;stroke-dasharray:none;font-family:EB Garamond;-inkscape-font-specification:EB Garamond"
         id="path3054"
         inkscape:connector-curvature="0" />
    </g>
  </g>
</svg>
